<?xml version="1.0" encoding="utf-8" standalone="no"?>
<!DOCTYPE svg PUBLIC "-//W3C//DTD SVG 1.1//EN"
  "http://www.w3.org/Graphics/SVG/1.1/DTD/svg11.dtd">
<svg xmlns:xlink="http://www.w3.org/1999/xlink" width="734.339688pt" height="604.963125pt" viewBox="0 0 734.339688 604.963125" xmlns="http://www.w3.org/2000/svg" version="1.1">
 <metadata>
  <rdf:RDF xmlns:dc="http://purl.org/dc/elements/1.1/" xmlns:cc="http://creativecommons.org/ns#" xmlns:rdf="http://www.w3.org/1999/02/22-rdf-syntax-ns#">
   <cc:Work>
    <dc:type rdf:resource="http://purl.org/dc/dcmitype/StillImage"/>
    <dc:date>2025-07-05T20:21:10.418523</dc:date>
    <dc:format>image/svg+xml</dc:format>
    <dc:creator>
     <cc:Agent>
      <dc:title>Matplotlib v3.9.4, https://matplotlib.org/</dc:title>
     </cc:Agent>
    </dc:creator>
   </cc:Work>
  </rdf:RDF>
 </metadata>
 <defs>
  <style type="text/css">*{stroke-linejoin: round; stroke-linecap: butt}</style>
 </defs>
 <g id="figure_1">
  <g id="patch_1">
   <path d="M 0 604.963125 
L 734.339688 604.963125 
L 734.339688 0 
L 0 0 
z
" style="fill: #ffffff"/>
  </g>
  <g id="axes_1">
   <g id="patch_2">
    <path d="M 49.588125 561.6 
L 719.188125 561.6 
L 719.188125 7.2 
L 49.588125 7.2 
z
" style="fill: #ffffff"/>
   </g>
   <g id="matplotlib.axis_1">
    <g id="xtick_1">
     <g id="line2d_1">
      <path d="M 62.717537 561.6 
L 62.717537 7.2 
" clip-path="url(#p889ae66b8d)" style="fill: none; stroke: #b0b0b0; stroke-opacity: 0.3; stroke-width: 0.8; stroke-linecap: square"/>
     </g>
     <g id="line2d_2">
      <defs>
       <path id="m9f5b600315" d="M 0 0 
L 0 3.5 
" style="stroke: #000000; stroke-width: 0.8"/>
      </defs>
      <g>
       <use xlink:href="#m9f5b600315" x="62.717537" y="561.6" style="stroke: #000000; stroke-width: 0.8"/>
      </g>
     </g>
     <g id="text_1">
      <!-- 0.0 -->
      <g transform="translate(54.765974 576.198437) scale(0.1 -0.1)">
       <defs>
        <path id="DejaVuSans-30" d="M 2034 4250 
Q 1547 4250 1301 3770 
Q 1056 3291 1056 2328 
Q 1056 1369 1301 889 
Q 1547 409 2034 409 
Q 2525 409 2770 889 
Q 3016 1369 3016 2328 
Q 3016 3291 2770 3770 
Q 2525 4250 2034 4250 
z
M 2034 4750 
Q 2819 4750 3233 4129 
Q 3647 3509 3647 2328 
Q 3647 1150 3233 529 
Q 2819 -91 2034 -91 
Q 1250 -91 836 529 
Q 422 1150 422 2328 
Q 422 3509 836 4129 
Q 1250 4750 2034 4750 
z
" transform="scale(0.015625)"/>
        <path id="DejaVuSans-2e" d="M 684 794 
L 1344 794 
L 1344 0 
L 684 0 
L 684 794 
z
" transform="scale(0.015625)"/>
       </defs>
       <use xlink:href="#DejaVuSans-30"/>
       <use xlink:href="#DejaVuSans-2e" x="63.623047"/>
       <use xlink:href="#DejaVuSans-30" x="95.410156"/>
      </g>
     </g>
    </g>
    <g id="xtick_2">
     <g id="line2d_3">
      <path d="M 194.011654 561.6 
L 194.011654 7.2 
" clip-path="url(#p889ae66b8d)" style="fill: none; stroke: #b0b0b0; stroke-opacity: 0.3; stroke-width: 0.8; stroke-linecap: square"/>
     </g>
     <g id="line2d_4">
      <g>
       <use xlink:href="#m9f5b600315" x="194.011654" y="561.6" style="stroke: #000000; stroke-width: 0.8"/>
      </g>
     </g>
     <g id="text_2">
      <!-- 0.2 -->
      <g transform="translate(186.060092 576.198437) scale(0.1 -0.1)">
       <defs>
        <path id="DejaVuSans-32" d="M 1228 531 
L 3431 531 
L 3431 0 
L 469 0 
L 469 531 
Q 828 903 1448 1529 
Q 2069 2156 2228 2338 
Q 2531 2678 2651 2914 
Q 2772 3150 2772 3378 
Q 2772 3750 2511 3984 
Q 2250 4219 1831 4219 
Q 1534 4219 1204 4116 
Q 875 4013 500 3803 
L 500 4441 
Q 881 4594 1212 4672 
Q 1544 4750 1819 4750 
Q 2544 4750 2975 4387 
Q 3406 4025 3406 3419 
Q 3406 3131 3298 2873 
Q 3191 2616 2906 2266 
Q 2828 2175 2409 1742 
Q 1991 1309 1228 531 
z
" transform="scale(0.015625)"/>
       </defs>
       <use xlink:href="#DejaVuSans-30"/>
       <use xlink:href="#DejaVuSans-2e" x="63.623047"/>
       <use xlink:href="#DejaVuSans-32" x="95.410156"/>
      </g>
     </g>
    </g>
    <g id="xtick_3">
     <g id="line2d_5">
      <path d="M 325.305772 561.6 
L 325.305772 7.2 
" clip-path="url(#p889ae66b8d)" style="fill: none; stroke: #b0b0b0; stroke-opacity: 0.3; stroke-width: 0.8; stroke-linecap: square"/>
     </g>
     <g id="line2d_6">
      <g>
       <use xlink:href="#m9f5b600315" x="325.305772" y="561.6" style="stroke: #000000; stroke-width: 0.8"/>
      </g>
     </g>
     <g id="text_3">
      <!-- 0.4 -->
      <g transform="translate(317.35421 576.198437) scale(0.1 -0.1)">
       <defs>
        <path id="DejaVuSans-34" d="M 2419 4116 
L 825 1625 
L 2419 1625 
L 2419 4116 
z
M 2253 4666 
L 3047 4666 
L 3047 1625 
L 3713 1625 
L 3713 1100 
L 3047 1100 
L 3047 0 
L 2419 0 
L 2419 1100 
L 313 1100 
L 313 1709 
L 2253 4666 
z
" transform="scale(0.015625)"/>
       </defs>
       <use xlink:href="#DejaVuSans-30"/>
       <use xlink:href="#DejaVuSans-2e" x="63.623047"/>
       <use xlink:href="#DejaVuSans-34" x="95.410156"/>
      </g>
     </g>
    </g>
    <g id="xtick_4">
     <g id="line2d_7">
      <path d="M 456.59989 561.6 
L 456.59989 7.2 
" clip-path="url(#p889ae66b8d)" style="fill: none; stroke: #b0b0b0; stroke-opacity: 0.3; stroke-width: 0.8; stroke-linecap: square"/>
     </g>
     <g id="line2d_8">
      <g>
       <use xlink:href="#m9f5b600315" x="456.59989" y="561.6" style="stroke: #000000; stroke-width: 0.8"/>
      </g>
     </g>
     <g id="text_4">
      <!-- 0.6 -->
      <g transform="translate(448.648327 576.198437) scale(0.1 -0.1)">
       <defs>
        <path id="DejaVuSans-36" d="M 2113 2584 
Q 1688 2584 1439 2293 
Q 1191 2003 1191 1497 
Q 1191 994 1439 701 
Q 1688 409 2113 409 
Q 2538 409 2786 701 
Q 3034 994 3034 1497 
Q 3034 2003 2786 2293 
Q 2538 2584 2113 2584 
z
M 3366 4563 
L 3366 3988 
Q 3128 4100 2886 4159 
Q 2644 4219 2406 4219 
Q 1781 4219 1451 3797 
Q 1122 3375 1075 2522 
Q 1259 2794 1537 2939 
Q 1816 3084 2150 3084 
Q 2853 3084 3261 2657 
Q 3669 2231 3669 1497 
Q 3669 778 3244 343 
Q 2819 -91 2113 -91 
Q 1303 -91 875 529 
Q 447 1150 447 2328 
Q 447 3434 972 4092 
Q 1497 4750 2381 4750 
Q 2619 4750 2861 4703 
Q 3103 4656 3366 4563 
z
" transform="scale(0.015625)"/>
       </defs>
       <use xlink:href="#DejaVuSans-30"/>
       <use xlink:href="#DejaVuSans-2e" x="63.623047"/>
       <use xlink:href="#DejaVuSans-36" x="95.410156"/>
      </g>
     </g>
    </g>
    <g id="xtick_5">
     <g id="line2d_9">
      <path d="M 587.894007 561.6 
L 587.894007 7.2 
" clip-path="url(#p889ae66b8d)" style="fill: none; stroke: #b0b0b0; stroke-opacity: 0.3; stroke-width: 0.8; stroke-linecap: square"/>
     </g>
     <g id="line2d_10">
      <g>
       <use xlink:href="#m9f5b600315" x="587.894007" y="561.6" style="stroke: #000000; stroke-width: 0.8"/>
      </g>
     </g>
     <g id="text_5">
      <!-- 0.8 -->
      <g transform="translate(579.942445 576.198437) scale(0.1 -0.1)">
       <defs>
        <path id="DejaVuSans-38" d="M 2034 2216 
Q 1584 2216 1326 1975 
Q 1069 1734 1069 1313 
Q 1069 891 1326 650 
Q 1584 409 2034 409 
Q 2484 409 2743 651 
Q 3003 894 3003 1313 
Q 3003 1734 2745 1975 
Q 2488 2216 2034 2216 
z
M 1403 2484 
Q 997 2584 770 2862 
Q 544 3141 544 3541 
Q 544 4100 942 4425 
Q 1341 4750 2034 4750 
Q 2731 4750 3128 4425 
Q 3525 4100 3525 3541 
Q 3525 3141 3298 2862 
Q 3072 2584 2669 2484 
Q 3125 2378 3379 2068 
Q 3634 1759 3634 1313 
Q 3634 634 3220 271 
Q 2806 -91 2034 -91 
Q 1263 -91 848 271 
Q 434 634 434 1313 
Q 434 1759 690 2068 
Q 947 2378 1403 2484 
z
M 1172 3481 
Q 1172 3119 1398 2916 
Q 1625 2713 2034 2713 
Q 2441 2713 2670 2916 
Q 2900 3119 2900 3481 
Q 2900 3844 2670 4047 
Q 2441 4250 2034 4250 
Q 1625 4250 1398 4047 
Q 1172 3844 1172 3481 
z
" transform="scale(0.015625)"/>
       </defs>
       <use xlink:href="#DejaVuSans-30"/>
       <use xlink:href="#DejaVuSans-2e" x="63.623047"/>
       <use xlink:href="#DejaVuSans-38" x="95.410156"/>
      </g>
     </g>
    </g>
    <g id="xtick_6">
     <g id="line2d_11">
      <path d="M 719.188125 561.6 
L 719.188125 7.2 
" clip-path="url(#p889ae66b8d)" style="fill: none; stroke: #b0b0b0; stroke-opacity: 0.3; stroke-width: 0.8; stroke-linecap: square"/>
     </g>
     <g id="line2d_12">
      <g>
       <use xlink:href="#m9f5b600315" x="719.188125" y="561.6" style="stroke: #000000; stroke-width: 0.8"/>
      </g>
     </g>
     <g id="text_6">
      <!-- 1.0 -->
      <g transform="translate(711.236563 576.198437) scale(0.1 -0.1)">
       <defs>
        <path id="DejaVuSans-31" d="M 794 531 
L 1825 531 
L 1825 4091 
L 703 3866 
L 703 4441 
L 1819 4666 
L 2450 4666 
L 2450 531 
L 3481 531 
L 3481 0 
L 794 0 
L 794 531 
z
" transform="scale(0.015625)"/>
       </defs>
       <use xlink:href="#DejaVuSans-31"/>
       <use xlink:href="#DejaVuSans-2e" x="63.623047"/>
       <use xlink:href="#DejaVuSans-30" x="95.410156"/>
      </g>
     </g>
    </g>
    <g id="text_7">
     <!-- False positive rate -->
     <g transform="translate(311.586875 594.435625) scale(0.16 -0.16)">
      <defs>
       <path id="DejaVuSans-46" d="M 628 4666 
L 3309 4666 
L 3309 4134 
L 1259 4134 
L 1259 2759 
L 3109 2759 
L 3109 2228 
L 1259 2228 
L 1259 0 
L 628 0 
L 628 4666 
z
" transform="scale(0.015625)"/>
       <path id="DejaVuSans-61" d="M 2194 1759 
Q 1497 1759 1228 1600 
Q 959 1441 959 1056 
Q 959 750 1161 570 
Q 1363 391 1709 391 
Q 2188 391 2477 730 
Q 2766 1069 2766 1631 
L 2766 1759 
L 2194 1759 
z
M 3341 1997 
L 3341 0 
L 2766 0 
L 2766 531 
Q 2569 213 2275 61 
Q 1981 -91 1556 -91 
Q 1019 -91 701 211 
Q 384 513 384 1019 
Q 384 1609 779 1909 
Q 1175 2209 1959 2209 
L 2766 2209 
L 2766 2266 
Q 2766 2663 2505 2880 
Q 2244 3097 1772 3097 
Q 1472 3097 1187 3025 
Q 903 2953 641 2809 
L 641 3341 
Q 956 3463 1253 3523 
Q 1550 3584 1831 3584 
Q 2591 3584 2966 3190 
Q 3341 2797 3341 1997 
z
" transform="scale(0.015625)"/>
       <path id="DejaVuSans-6c" d="M 603 4863 
L 1178 4863 
L 1178 0 
L 603 0 
L 603 4863 
z
" transform="scale(0.015625)"/>
       <path id="DejaVuSans-73" d="M 2834 3397 
L 2834 2853 
Q 2591 2978 2328 3040 
Q 2066 3103 1784 3103 
Q 1356 3103 1142 2972 
Q 928 2841 928 2578 
Q 928 2378 1081 2264 
Q 1234 2150 1697 2047 
L 1894 2003 
Q 2506 1872 2764 1633 
Q 3022 1394 3022 966 
Q 3022 478 2636 193 
Q 2250 -91 1575 -91 
Q 1294 -91 989 -36 
Q 684 19 347 128 
L 347 722 
Q 666 556 975 473 
Q 1284 391 1588 391 
Q 1994 391 2212 530 
Q 2431 669 2431 922 
Q 2431 1156 2273 1281 
Q 2116 1406 1581 1522 
L 1381 1569 
Q 847 1681 609 1914 
Q 372 2147 372 2553 
Q 372 3047 722 3315 
Q 1072 3584 1716 3584 
Q 2034 3584 2315 3537 
Q 2597 3491 2834 3397 
z
" transform="scale(0.015625)"/>
       <path id="DejaVuSans-65" d="M 3597 1894 
L 3597 1613 
L 953 1613 
Q 991 1019 1311 708 
Q 1631 397 2203 397 
Q 2534 397 2845 478 
Q 3156 559 3463 722 
L 3463 178 
Q 3153 47 2828 -22 
Q 2503 -91 2169 -91 
Q 1331 -91 842 396 
Q 353 884 353 1716 
Q 353 2575 817 3079 
Q 1281 3584 2069 3584 
Q 2775 3584 3186 3129 
Q 3597 2675 3597 1894 
z
M 3022 2063 
Q 3016 2534 2758 2815 
Q 2500 3097 2075 3097 
Q 1594 3097 1305 2825 
Q 1016 2553 972 2059 
L 3022 2063 
z
" transform="scale(0.015625)"/>
       <path id="DejaVuSans-20" transform="scale(0.015625)"/>
       <path id="DejaVuSans-70" d="M 1159 525 
L 1159 -1331 
L 581 -1331 
L 581 3500 
L 1159 3500 
L 1159 2969 
Q 1341 3281 1617 3432 
Q 1894 3584 2278 3584 
Q 2916 3584 3314 3078 
Q 3713 2572 3713 1747 
Q 3713 922 3314 415 
Q 2916 -91 2278 -91 
Q 1894 -91 1617 61 
Q 1341 213 1159 525 
z
M 3116 1747 
Q 3116 2381 2855 2742 
Q 2594 3103 2138 3103 
Q 1681 3103 1420 2742 
Q 1159 2381 1159 1747 
Q 1159 1113 1420 752 
Q 1681 391 2138 391 
Q 2594 391 2855 752 
Q 3116 1113 3116 1747 
z
" transform="scale(0.015625)"/>
       <path id="DejaVuSans-6f" d="M 1959 3097 
Q 1497 3097 1228 2736 
Q 959 2375 959 1747 
Q 959 1119 1226 758 
Q 1494 397 1959 397 
Q 2419 397 2687 759 
Q 2956 1122 2956 1747 
Q 2956 2369 2687 2733 
Q 2419 3097 1959 3097 
z
M 1959 3584 
Q 2709 3584 3137 3096 
Q 3566 2609 3566 1747 
Q 3566 888 3137 398 
Q 2709 -91 1959 -91 
Q 1206 -91 779 398 
Q 353 888 353 1747 
Q 353 2609 779 3096 
Q 1206 3584 1959 3584 
z
" transform="scale(0.015625)"/>
       <path id="DejaVuSans-69" d="M 603 3500 
L 1178 3500 
L 1178 0 
L 603 0 
L 603 3500 
z
M 603 4863 
L 1178 4863 
L 1178 4134 
L 603 4134 
L 603 4863 
z
" transform="scale(0.015625)"/>
       <path id="DejaVuSans-74" d="M 1172 4494 
L 1172 3500 
L 2356 3500 
L 2356 3053 
L 1172 3053 
L 1172 1153 
Q 1172 725 1289 603 
Q 1406 481 1766 481 
L 2356 481 
L 2356 0 
L 1766 0 
Q 1100 0 847 248 
Q 594 497 594 1153 
L 594 3053 
L 172 3053 
L 172 3500 
L 594 3500 
L 594 4494 
L 1172 4494 
z
" transform="scale(0.015625)"/>
       <path id="DejaVuSans-76" d="M 191 3500 
L 800 3500 
L 1894 563 
L 2988 3500 
L 3597 3500 
L 2284 0 
L 1503 0 
L 191 3500 
z
" transform="scale(0.015625)"/>
       <path id="DejaVuSans-72" d="M 2631 2963 
Q 2534 3019 2420 3045 
Q 2306 3072 2169 3072 
Q 1681 3072 1420 2755 
Q 1159 2438 1159 1844 
L 1159 0 
L 581 0 
L 581 3500 
L 1159 3500 
L 1159 2956 
Q 1341 3275 1631 3429 
Q 1922 3584 2338 3584 
Q 2397 3584 2469 3576 
Q 2541 3569 2628 3553 
L 2631 2963 
z
" transform="scale(0.015625)"/>
      </defs>
      <use xlink:href="#DejaVuSans-46"/>
      <use xlink:href="#DejaVuSans-61" x="48.394531"/>
      <use xlink:href="#DejaVuSans-6c" x="109.673828"/>
      <use xlink:href="#DejaVuSans-73" x="137.457031"/>
      <use xlink:href="#DejaVuSans-65" x="189.556641"/>
      <use xlink:href="#DejaVuSans-20" x="251.080078"/>
      <use xlink:href="#DejaVuSans-70" x="282.867188"/>
      <use xlink:href="#DejaVuSans-6f" x="346.34375"/>
      <use xlink:href="#DejaVuSans-73" x="407.525391"/>
      <use xlink:href="#DejaVuSans-69" x="459.625"/>
      <use xlink:href="#DejaVuSans-74" x="487.408203"/>
      <use xlink:href="#DejaVuSans-69" x="526.617188"/>
      <use xlink:href="#DejaVuSans-76" x="554.400391"/>
      <use xlink:href="#DejaVuSans-65" x="613.580078"/>
      <use xlink:href="#DejaVuSans-20" x="675.103516"/>
      <use xlink:href="#DejaVuSans-72" x="706.890625"/>
      <use xlink:href="#DejaVuSans-61" x="748.003906"/>
      <use xlink:href="#DejaVuSans-74" x="809.283203"/>
      <use xlink:href="#DejaVuSans-65" x="848.492188"/>
     </g>
    </g>
   </g>
   <g id="matplotlib.axis_2">
    <g id="ytick_1">
     <g id="line2d_13">
      <path d="M 49.588125 561.6 
L 719.188125 561.6 
" clip-path="url(#p889ae66b8d)" style="fill: none; stroke: #b0b0b0; stroke-opacity: 0.3; stroke-width: 0.8; stroke-linecap: square"/>
     </g>
     <g id="line2d_14">
      <defs>
       <path id="m844da51918" d="M 0 0 
L -3.5 0 
" style="stroke: #000000; stroke-width: 0.8"/>
      </defs>
      <g>
       <use xlink:href="#m844da51918" x="49.588125" y="561.6" style="stroke: #000000; stroke-width: 0.8"/>
      </g>
     </g>
     <g id="text_8">
      <!-- 0.0 -->
      <g transform="translate(26.685 565.399219) scale(0.1 -0.1)">
       <use xlink:href="#DejaVuSans-30"/>
       <use xlink:href="#DejaVuSans-2e" x="63.623047"/>
       <use xlink:href="#DejaVuSans-30" x="95.410156"/>
      </g>
     </g>
    </g>
    <g id="ytick_2">
     <g id="line2d_15">
      <path d="M 49.588125 452.894118 
L 719.188125 452.894118 
" clip-path="url(#p889ae66b8d)" style="fill: none; stroke: #b0b0b0; stroke-opacity: 0.3; stroke-width: 0.8; stroke-linecap: square"/>
     </g>
     <g id="line2d_16">
      <g>
       <use xlink:href="#m844da51918" x="49.588125" y="452.894118" style="stroke: #000000; stroke-width: 0.8"/>
      </g>
     </g>
     <g id="text_9">
      <!-- 0.2 -->
      <g transform="translate(26.685 456.693336) scale(0.1 -0.1)">
       <use xlink:href="#DejaVuSans-30"/>
       <use xlink:href="#DejaVuSans-2e" x="63.623047"/>
       <use xlink:href="#DejaVuSans-32" x="95.410156"/>
      </g>
     </g>
    </g>
    <g id="ytick_3">
     <g id="line2d_17">
      <path d="M 49.588125 344.188235 
L 719.188125 344.188235 
" clip-path="url(#p889ae66b8d)" style="fill: none; stroke: #b0b0b0; stroke-opacity: 0.3; stroke-width: 0.8; stroke-linecap: square"/>
     </g>
     <g id="line2d_18">
      <g>
       <use xlink:href="#m844da51918" x="49.588125" y="344.188235" style="stroke: #000000; stroke-width: 0.8"/>
      </g>
     </g>
     <g id="text_10">
      <!-- 0.4 -->
      <g transform="translate(26.685 347.987454) scale(0.1 -0.1)">
       <use xlink:href="#DejaVuSans-30"/>
       <use xlink:href="#DejaVuSans-2e" x="63.623047"/>
       <use xlink:href="#DejaVuSans-34" x="95.410156"/>
      </g>
     </g>
    </g>
    <g id="ytick_4">
     <g id="line2d_19">
      <path d="M 49.588125 235.482353 
L 719.188125 235.482353 
" clip-path="url(#p889ae66b8d)" style="fill: none; stroke: #b0b0b0; stroke-opacity: 0.3; stroke-width: 0.8; stroke-linecap: square"/>
     </g>
     <g id="line2d_20">
      <g>
       <use xlink:href="#m844da51918" x="49.588125" y="235.482353" style="stroke: #000000; stroke-width: 0.8"/>
      </g>
     </g>
     <g id="text_11">
      <!-- 0.6 -->
      <g transform="translate(26.685 239.281572) scale(0.1 -0.1)">
       <use xlink:href="#DejaVuSans-30"/>
       <use xlink:href="#DejaVuSans-2e" x="63.623047"/>
       <use xlink:href="#DejaVuSans-36" x="95.410156"/>
      </g>
     </g>
    </g>
    <g id="ytick_5">
     <g id="line2d_21">
      <path d="M 49.588125 126.776471 
L 719.188125 126.776471 
" clip-path="url(#p889ae66b8d)" style="fill: none; stroke: #b0b0b0; stroke-opacity: 0.3; stroke-width: 0.8; stroke-linecap: square"/>
     </g>
     <g id="line2d_22">
      <g>
       <use xlink:href="#m844da51918" x="49.588125" y="126.776471" style="stroke: #000000; stroke-width: 0.8"/>
      </g>
     </g>
     <g id="text_12">
      <!-- 0.8 -->
      <g transform="translate(26.685 130.575689) scale(0.1 -0.1)">
       <use xlink:href="#DejaVuSans-30"/>
       <use xlink:href="#DejaVuSans-2e" x="63.623047"/>
       <use xlink:href="#DejaVuSans-38" x="95.410156"/>
      </g>
     </g>
    </g>
    <g id="ytick_6">
     <g id="line2d_23">
      <path d="M 49.588125 18.070588 
L 719.188125 18.070588 
" clip-path="url(#p889ae66b8d)" style="fill: none; stroke: #b0b0b0; stroke-opacity: 0.3; stroke-width: 0.8; stroke-linecap: square"/>
     </g>
     <g id="line2d_24">
      <g>
       <use xlink:href="#m844da51918" x="49.588125" y="18.070588" style="stroke: #000000; stroke-width: 0.8"/>
      </g>
     </g>
     <g id="text_13">
      <!-- 1.0 -->
      <g transform="translate(26.685 21.869807) scale(0.1 -0.1)">
       <use xlink:href="#DejaVuSans-31"/>
       <use xlink:href="#DejaVuSans-2e" x="63.623047"/>
       <use xlink:href="#DejaVuSans-30" x="95.410156"/>
      </g>
     </g>
    </g>
    <g id="text_14">
     <!-- True positive rate -->
     <g transform="translate(19.3575 354.1025) rotate(-90) scale(0.16 -0.16)">
      <defs>
       <path id="DejaVuSans-54" d="M -19 4666 
L 3928 4666 
L 3928 4134 
L 2272 4134 
L 2272 0 
L 1638 0 
L 1638 4134 
L -19 4134 
L -19 4666 
z
" transform="scale(0.015625)"/>
       <path id="DejaVuSans-75" d="M 544 1381 
L 544 3500 
L 1119 3500 
L 1119 1403 
Q 1119 906 1312 657 
Q 1506 409 1894 409 
Q 2359 409 2629 706 
Q 2900 1003 2900 1516 
L 2900 3500 
L 3475 3500 
L 3475 0 
L 2900 0 
L 2900 538 
Q 2691 219 2414 64 
Q 2138 -91 1772 -91 
Q 1169 -91 856 284 
Q 544 659 544 1381 
z
M 1991 3584 
L 1991 3584 
z
" transform="scale(0.015625)"/>
      </defs>
      <use xlink:href="#DejaVuSans-54"/>
      <use xlink:href="#DejaVuSans-72" x="46.333984"/>
      <use xlink:href="#DejaVuSans-75" x="87.447266"/>
      <use xlink:href="#DejaVuSans-65" x="150.826172"/>
      <use xlink:href="#DejaVuSans-20" x="212.349609"/>
      <use xlink:href="#DejaVuSans-70" x="244.136719"/>
      <use xlink:href="#DejaVuSans-6f" x="307.613281"/>
      <use xlink:href="#DejaVuSans-73" x="368.794922"/>
      <use xlink:href="#DejaVuSans-69" x="420.894531"/>
      <use xlink:href="#DejaVuSans-74" x="448.677734"/>
      <use xlink:href="#DejaVuSans-69" x="487.886719"/>
      <use xlink:href="#DejaVuSans-76" x="515.669922"/>
      <use xlink:href="#DejaVuSans-65" x="574.849609"/>
      <use xlink:href="#DejaVuSans-20" x="636.373047"/>
      <use xlink:href="#DejaVuSans-72" x="668.160156"/>
      <use xlink:href="#DejaVuSans-61" x="709.273438"/>
      <use xlink:href="#DejaVuSans-74" x="770.552734"/>
      <use xlink:href="#DejaVuSans-65" x="809.761719"/>
     </g>
    </g>
   </g>
   <g id="line2d_25">
    <path d="M 62.717537 561.6 
L 62.717537 548.011765 
L 62.717537 452.894118 
L 70.923419 452.894118 
L 70.923419 276.247059 
L 79.129301 276.247059 
L 79.129301 262.658824 
L 87.335184 262.658824 
L 87.335184 235.482353 
L 95.541066 235.482353 
L 95.541066 208.305882 
L 103.746949 208.305882 
L 103.746949 99.6 
L 111.952831 99.6 
L 111.952831 72.423529 
L 120.158713 72.423529 
L 120.158713 58.835294 
L 128.364596 58.835294 
L 128.364596 31.658824 
L 423.77636 31.658824 
L 423.77636 18.070588 
L 719.188125 18.070588 
" clip-path="url(#p889ae66b8d)" style="fill: none; stroke: #00ffff; stroke-width: 2; stroke-linecap: square"/>
   </g>
   <g id="line2d_26">
    <path d="M 62.717537 561.6 
L 62.717537 548.011765 
L 62.717537 384.952941 
L 87.335184 384.952941 
L 87.335184 303.423529 
L 103.746949 303.423529 
L 103.746949 289.835294 
L 111.952831 289.835294 
L 111.952831 276.247059 
L 120.158713 276.247059 
L 120.158713 262.658824 
L 136.570478 262.658824 
L 136.570478 249.070588 
L 144.77636 249.070588 
L 144.77636 221.894118 
L 161.188125 221.894118 
L 161.188125 181.129412 
L 202.217537 181.129412 
L 202.217537 153.952941 
L 235.041066 153.952941 
L 235.041066 140.364706 
L 251.452831 140.364706 
L 251.452831 113.188235 
L 276.070478 113.188235 
L 276.070478 99.6 
L 333.511654 99.6 
L 333.511654 86.011765 
L 366.335184 86.011765 
L 366.335184 72.423529 
L 399.158713 72.423529 
L 399.158713 58.835294 
L 563.27636 58.835294 
L 563.27636 45.247059 
L 628.923419 45.247059 
L 628.923419 31.658824 
L 653.541066 31.658824 
L 653.541066 18.070588 
L 719.188125 18.070588 
" clip-path="url(#p889ae66b8d)" style="fill: none; stroke-dasharray: 7.4,3.2; stroke-dashoffset: 0; stroke: #00ffff; stroke-width: 2"/>
   </g>
   <g id="line2d_27">
    <path d="M 62.717537 561.6 
L 68.685451 561.6 
L 68.685451 235.482353 
L 86.589195 235.482353 
L 86.589195 181.129412 
L 110.460852 181.129412 
L 110.460852 126.776471 
L 170.139997 126.776471 
L 170.139997 72.423529 
L 283.530371 72.423529 
L 283.530371 18.070588 
L 719.188125 18.070588 
" clip-path="url(#p889ae66b8d)" style="fill: none; stroke: #ff8c00; stroke-width: 2; stroke-linecap: square"/>
   </g>
   <g id="line2d_28">
    <path d="M 62.717537 561.6 
L 68.685451 561.6 
L 68.685451 452.894118 
L 110.460852 452.894118 
L 110.460852 398.541176 
L 122.396681 398.541176 
L 122.396681 344.188235 
L 134.33251 344.188235 
L 134.33251 289.835294 
L 146.268339 289.835294 
L 146.268339 181.129412 
L 205.947483 181.129412 
L 205.947483 126.776471 
L 313.369943 126.776471 
L 313.369943 72.423529 
L 337.241601 72.423529 
L 337.241601 18.070588 
L 719.188125 18.070588 
" clip-path="url(#p889ae66b8d)" style="fill: none; stroke-dasharray: 7.4,3.2; stroke-dashoffset: 0; stroke: #ff8c00; stroke-width: 2"/>
   </g>
   <g id="line2d_29">
    <path d="M 62.717537 561.6 
L 62.717537 534.423529 
L 62.717537 153.952941 
L 75.846949 153.952941 
L 75.846949 45.247059 
L 102.105772 45.247059 
L 102.105772 18.070588 
L 719.188125 18.070588 
" clip-path="url(#p889ae66b8d)" style="fill: none; stroke: #6495ed; stroke-width: 2; stroke-linecap: square"/>
   </g>
   <g id="line2d_30">
    <path d="M 62.717537 561.6 
L 62.717537 534.423529 
L 62.717537 317.011765 
L 69.282243 317.011765 
L 69.282243 289.835294 
L 75.846949 289.835294 
L 75.846949 99.6 
L 82.411654 99.6 
L 82.411654 72.423529 
L 88.97636 72.423529 
L 88.97636 45.247059 
L 174.317537 45.247059 
L 174.317537 18.070588 
L 719.188125 18.070588 
" clip-path="url(#p889ae66b8d)" style="fill: none; stroke-dasharray: 7.4,3.2; stroke-dashoffset: 0; stroke: #6495ed; stroke-width: 2"/>
   </g>
   <g id="line2d_31">
    <path d="M 62.717537 561.6 
L 62.717537 550.729412 
L 62.717537 333.317647 
L 72.095688 333.317647 
L 72.095688 268.094118 
L 81.473839 268.094118 
L 81.473839 83.294118 
L 90.851991 83.294118 
L 90.851991 50.682353 
L 100.230142 50.682353 
L 100.230142 18.070588 
L 719.188125 18.070588 
" clip-path="url(#p889ae66b8d)" style="fill: none; stroke: #ff0000; stroke-width: 2; stroke-linecap: square"/>
   </g>
   <g id="line2d_32">
    <path d="M 62.717537 561.6 
L 62.717537 550.729412 
L 62.717537 300.705882 
L 72.095688 300.705882 
L 72.095688 289.835294 
L 81.473839 289.835294 
L 81.473839 170.258824 
L 100.230142 170.258824 
L 100.230142 126.776471 
L 118.986444 126.776471 
L 118.986444 105.035294 
L 147.120898 105.035294 
L 147.120898 83.294118 
L 175.255352 83.294118 
L 175.255352 72.423529 
L 212.767957 72.423529 
L 212.767957 61.552941 
L 231.524259 61.552941 
L 231.524259 39.811765 
L 240.902411 39.811765 
L 240.902411 28.941176 
L 344.062075 28.941176 
L 344.062075 18.070588 
L 719.188125 18.070588 
" clip-path="url(#p889ae66b8d)" style="fill: none; stroke-dasharray: 7.4,3.2; stroke-dashoffset: 0; stroke: #ff0000; stroke-width: 2"/>
   </g>
   <g id="line2d_33">
    <path d="M 62.717537 561.6 
L 62.717537 557.070588 
L 62.717537 416.658824 
L 64.541066 416.658824 
L 64.541066 357.776471 
L 66.364596 357.776471 
L 66.364596 303.423529 
L 68.188125 303.423529 
L 68.188125 298.894118 
L 70.011654 298.894118 
L 70.011654 262.658824 
L 71.835184 262.658824 
L 71.835184 258.129412 
L 73.658713 258.129412 
L 73.658713 240.011765 
L 77.305772 240.011765 
L 77.305772 212.835294 
L 79.129301 212.835294 
L 79.129301 199.247059 
L 80.952831 199.247059 
L 80.952831 113.188235 
L 82.77636 113.188235 
L 82.77636 99.6 
L 84.59989 99.6 
L 84.59989 90.541176 
L 90.070478 90.541176 
L 90.070478 63.364706 
L 104.658713 63.364706 
L 104.658713 58.835294 
L 110.129301 58.835294 
L 110.129301 49.776471 
L 133.835184 49.776471 
L 133.835184 45.247059 
L 141.129301 45.247059 
L 141.129301 40.717647 
L 146.59989 40.717647 
L 146.59989 36.188235 
L 150.246949 36.188235 
L 150.246949 31.658824 
L 217.717537 31.658824 
L 217.717537 27.129412 
L 235.952831 27.129412 
L 235.952831 22.6 
L 312.541066 22.6 
L 312.541066 18.070588 
L 719.188125 18.070588 
" clip-path="url(#p889ae66b8d)" style="fill: none; stroke: #ff1493; stroke-width: 4; stroke-linecap: square"/>
   </g>
   <g id="line2d_34">
    <path d="M 62.717537 561.6 
L 62.717537 557.070588 
L 62.717537 430.247059 
L 64.541066 430.247059 
L 64.541066 421.188235 
L 66.364596 421.188235 
L 66.364596 326.070588 
L 71.835184 326.070588 
L 71.835184 307.952941 
L 77.305772 307.952941 
L 77.305772 271.717647 
L 82.77636 271.717647 
L 82.77636 267.188235 
L 84.59989 267.188235 
L 84.59989 262.658824 
L 86.423419 262.658824 
L 86.423419 258.129412 
L 88.246949 258.129412 
L 88.246949 253.6 
L 91.894007 253.6 
L 91.894007 249.070588 
L 93.717537 249.070588 
L 93.717537 235.482353 
L 97.364596 235.482353 
L 97.364596 226.423529 
L 101.011654 226.423529 
L 101.011654 217.364706 
L 104.658713 217.364706 
L 104.658713 208.305882 
L 106.482243 208.305882 
L 106.482243 203.776471 
L 108.305772 203.776471 
L 108.305772 199.247059 
L 110.129301 199.247059 
L 110.129301 194.717647 
L 113.77636 194.717647 
L 113.77636 190.188235 
L 117.423419 190.188235 
L 117.423419 181.129412 
L 119.246949 181.129412 
L 119.246949 167.541176 
L 126.541066 167.541176 
L 126.541066 163.011765 
L 132.011654 163.011765 
L 132.011654 158.482353 
L 133.835184 158.482353 
L 133.835184 149.423529 
L 144.77636 149.423529 
L 144.77636 144.894118 
L 148.423419 144.894118 
L 148.423419 131.305882 
L 153.894007 131.305882 
L 153.894007 117.717647 
L 163.011654 117.717647 
L 163.011654 113.188235 
L 170.305772 113.188235 
L 170.305772 108.658824 
L 173.952831 108.658824 
L 173.952831 104.129412 
L 175.77636 104.129412 
L 175.77636 99.6 
L 188.541066 99.6 
L 188.541066 95.070588 
L 194.011654 95.070588 
L 194.011654 90.541176 
L 195.835184 90.541176 
L 195.835184 86.011765 
L 197.658713 86.011765 
L 197.658713 72.423529 
L 221.364596 72.423529 
L 221.364596 67.894118 
L 250.541066 67.894118 
L 250.541066 63.364706 
L 259.658713 63.364706 
L 259.658713 54.305882 
L 263.305772 54.305882 
L 263.305772 49.776471 
L 283.364596 49.776471 
L 283.364596 45.247059 
L 296.129301 45.247059 
L 296.129301 40.717647 
L 338.070478 40.717647 
L 338.070478 36.188235 
L 339.894007 36.188235 
L 339.894007 27.129412 
L 363.59989 27.129412 
L 363.59989 22.6 
L 462.070478 22.6 
L 462.070478 18.070588 
L 719.188125 18.070588 
" clip-path="url(#p889ae66b8d)" style="fill: none; stroke-dasharray: 14.8,6.4; stroke-dashoffset: 0; stroke: #ff1493; stroke-width: 4"/>
   </g>
   <g id="line2d_35">
    <path d="M 62.717537 375.441176 
L 68.685451 293.911765 
L 70.923419 249.75 
L 72.095688 233.444118 
L 75.846949 206.267647 
L 79.129301 202.870588 
L 81.473839 156.670588 
L 86.589195 143.082353 
L 87.335184 136.288235 
L 90.851991 128.135294 
L 95.541066 121.341176 
L 100.230142 113.188235 
L 102.105772 106.394118 
L 103.746949 79.217647 
L 110.460852 65.629412 
L 111.952831 58.835294 
L 120.158713 55.438235 
L 128.364596 48.644118 
L 170.139997 35.055882 
L 283.530371 21.467647 
L 423.77636 18.070588 
L 719.188125 18.070588 
" clip-path="url(#p889ae66b8d)" style="fill: none; stroke: #000080; stroke-width: 4; stroke-linecap: square"/>
   </g>
   <g id="line2d_36">
    <path d="M 62.717537 391.067647 
L 68.685451 363.891176 
L 69.282243 357.097059 
L 72.095688 354.379412 
L 75.846949 306.820588 
L 81.473839 276.926471 
L 82.411654 270.132353 
L 87.335184 249.75 
L 88.97636 242.955882 
L 100.230142 232.085294 
L 103.746949 228.688235 
L 110.460852 215.1 
L 111.952831 211.702941 
L 118.986444 206.267647 
L 120.158713 202.870588 
L 122.396681 189.282353 
L 134.33251 175.694118 
L 136.570478 172.297059 
L 144.77636 165.502941 
L 146.268339 138.326471 
L 147.120898 132.891176 
L 161.188125 122.7 
L 174.317537 115.905882 
L 175.255352 113.188235 
L 202.217537 106.394118 
L 205.947483 92.805882 
L 212.767957 90.088235 
L 231.524259 84.652941 
L 235.041066 81.255882 
L 240.902411 78.538235 
L 251.452831 71.744118 
L 276.070478 68.347059 
L 313.369943 54.758824 
L 333.511654 51.361765 
L 337.241601 37.773529 
L 344.062075 35.055882 
L 366.335184 31.658824 
L 399.158713 28.261765 
L 563.27636 24.864706 
L 628.923419 21.467647 
L 653.541066 18.070588 
L 719.188125 18.070588 
" clip-path="url(#p889ae66b8d)" style="fill: none; stroke-dasharray: 14.8,6.4; stroke-dashoffset: 0; stroke: #000080; stroke-width: 4"/>
   </g>
   <g id="line2d_37">
    <path d="M 62.717537 561.6 
L 719.188125 18.070588 
" clip-path="url(#p889ae66b8d)" style="fill: none; stroke-dasharray: 7.4,3.2; stroke-dashoffset: 0; stroke: #000000; stroke-opacity: 0.5; stroke-width: 2"/>
   </g>
   <g id="patch_3">
    <path d="M 49.588125 561.6 
L 49.588125 7.2 
" style="fill: none; stroke: #000000; stroke-width: 0.8; stroke-linejoin: miter; stroke-linecap: square"/>
   </g>
   <g id="patch_4">
    <path d="M 719.188125 561.6 
L 719.188125 7.2 
" style="fill: none; stroke: #000000; stroke-width: 0.8; stroke-linejoin: miter; stroke-linecap: square"/>
   </g>
   <g id="patch_5">
    <path d="M 49.588125 561.6 
L 719.188125 561.6 
" style="fill: none; stroke: #000000; stroke-width: 0.8; stroke-linejoin: miter; stroke-linecap: square"/>
   </g>
   <g id="patch_6">
    <path d="M 49.588125 7.2 
L 719.188125 7.2 
" style="fill: none; stroke: #000000; stroke-width: 0.8; stroke-linejoin: miter; stroke-linecap: square"/>
   </g>
   <g id="legend_1">
    <g id="patch_7">
     <path d="M 430.439687 556.6 
L 712.188125 556.6 
Q 714.188125 556.6 714.188125 554.6 
L 714.188125 379.4625 
Q 714.188125 377.4625 712.188125 377.4625 
L 430.439687 377.4625 
Q 428.439687 377.4625 428.439687 379.4625 
L 428.439687 554.6 
Q 428.439687 556.6 430.439687 556.6 
z
" style="fill: #ffffff; opacity: 0.8; stroke: #cccccc; stroke-linejoin: miter"/>
    </g>
    <g id="line2d_38">
     <path d="M 432.439687 385.560938 
L 442.439687 385.560938 
L 452.439687 385.560938 
" style="fill: none; stroke: #00ffff; stroke-width: 2; stroke-linecap: square"/>
    </g>
    <g id="text_15">
     <!-- Class 1 with knowledge (AUC = 0.954) -->
     <g transform="translate(460.439687 389.060938) scale(0.1 -0.1)">
      <defs>
       <path id="DejaVuSans-43" d="M 4122 4306 
L 4122 3641 
Q 3803 3938 3442 4084 
Q 3081 4231 2675 4231 
Q 1875 4231 1450 3742 
Q 1025 3253 1025 2328 
Q 1025 1406 1450 917 
Q 1875 428 2675 428 
Q 3081 428 3442 575 
Q 3803 722 4122 1019 
L 4122 359 
Q 3791 134 3420 21 
Q 3050 -91 2638 -91 
Q 1578 -91 968 557 
Q 359 1206 359 2328 
Q 359 3453 968 4101 
Q 1578 4750 2638 4750 
Q 3056 4750 3426 4639 
Q 3797 4528 4122 4306 
z
" transform="scale(0.015625)"/>
       <path id="DejaVuSans-77" d="M 269 3500 
L 844 3500 
L 1563 769 
L 2278 3500 
L 2956 3500 
L 3675 769 
L 4391 3500 
L 4966 3500 
L 4050 0 
L 3372 0 
L 2619 2869 
L 1863 0 
L 1184 0 
L 269 3500 
z
" transform="scale(0.015625)"/>
       <path id="DejaVuSans-68" d="M 3513 2113 
L 3513 0 
L 2938 0 
L 2938 2094 
Q 2938 2591 2744 2837 
Q 2550 3084 2163 3084 
Q 1697 3084 1428 2787 
Q 1159 2491 1159 1978 
L 1159 0 
L 581 0 
L 581 4863 
L 1159 4863 
L 1159 2956 
Q 1366 3272 1645 3428 
Q 1925 3584 2291 3584 
Q 2894 3584 3203 3211 
Q 3513 2838 3513 2113 
z
" transform="scale(0.015625)"/>
       <path id="DejaVuSans-6b" d="M 581 4863 
L 1159 4863 
L 1159 1991 
L 2875 3500 
L 3609 3500 
L 1753 1863 
L 3688 0 
L 2938 0 
L 1159 1709 
L 1159 0 
L 581 0 
L 581 4863 
z
" transform="scale(0.015625)"/>
       <path id="DejaVuSans-6e" d="M 3513 2113 
L 3513 0 
L 2938 0 
L 2938 2094 
Q 2938 2591 2744 2837 
Q 2550 3084 2163 3084 
Q 1697 3084 1428 2787 
Q 1159 2491 1159 1978 
L 1159 0 
L 581 0 
L 581 3500 
L 1159 3500 
L 1159 2956 
Q 1366 3272 1645 3428 
Q 1925 3584 2291 3584 
Q 2894 3584 3203 3211 
Q 3513 2838 3513 2113 
z
" transform="scale(0.015625)"/>
       <path id="DejaVuSans-64" d="M 2906 2969 
L 2906 4863 
L 3481 4863 
L 3481 0 
L 2906 0 
L 2906 525 
Q 2725 213 2448 61 
Q 2172 -91 1784 -91 
Q 1150 -91 751 415 
Q 353 922 353 1747 
Q 353 2572 751 3078 
Q 1150 3584 1784 3584 
Q 2172 3584 2448 3432 
Q 2725 3281 2906 2969 
z
M 947 1747 
Q 947 1113 1208 752 
Q 1469 391 1925 391 
Q 2381 391 2643 752 
Q 2906 1113 2906 1747 
Q 2906 2381 2643 2742 
Q 2381 3103 1925 3103 
Q 1469 3103 1208 2742 
Q 947 2381 947 1747 
z
" transform="scale(0.015625)"/>
       <path id="DejaVuSans-67" d="M 2906 1791 
Q 2906 2416 2648 2759 
Q 2391 3103 1925 3103 
Q 1463 3103 1205 2759 
Q 947 2416 947 1791 
Q 947 1169 1205 825 
Q 1463 481 1925 481 
Q 2391 481 2648 825 
Q 2906 1169 2906 1791 
z
M 3481 434 
Q 3481 -459 3084 -895 
Q 2688 -1331 1869 -1331 
Q 1566 -1331 1297 -1286 
Q 1028 -1241 775 -1147 
L 775 -588 
Q 1028 -725 1275 -790 
Q 1522 -856 1778 -856 
Q 2344 -856 2625 -561 
Q 2906 -266 2906 331 
L 2906 616 
Q 2728 306 2450 153 
Q 2172 0 1784 0 
Q 1141 0 747 490 
Q 353 981 353 1791 
Q 353 2603 747 3093 
Q 1141 3584 1784 3584 
Q 2172 3584 2450 3431 
Q 2728 3278 2906 2969 
L 2906 3500 
L 3481 3500 
L 3481 434 
z
" transform="scale(0.015625)"/>
       <path id="DejaVuSans-28" d="M 1984 4856 
Q 1566 4138 1362 3434 
Q 1159 2731 1159 2009 
Q 1159 1288 1364 580 
Q 1569 -128 1984 -844 
L 1484 -844 
Q 1016 -109 783 600 
Q 550 1309 550 2009 
Q 550 2706 781 3412 
Q 1013 4119 1484 4856 
L 1984 4856 
z
" transform="scale(0.015625)"/>
       <path id="DejaVuSans-41" d="M 2188 4044 
L 1331 1722 
L 3047 1722 
L 2188 4044 
z
M 1831 4666 
L 2547 4666 
L 4325 0 
L 3669 0 
L 3244 1197 
L 1141 1197 
L 716 0 
L 50 0 
L 1831 4666 
z
" transform="scale(0.015625)"/>
       <path id="DejaVuSans-55" d="M 556 4666 
L 1191 4666 
L 1191 1831 
Q 1191 1081 1462 751 
Q 1734 422 2344 422 
Q 2950 422 3222 751 
Q 3494 1081 3494 1831 
L 3494 4666 
L 4128 4666 
L 4128 1753 
Q 4128 841 3676 375 
Q 3225 -91 2344 -91 
Q 1459 -91 1007 375 
Q 556 841 556 1753 
L 556 4666 
z
" transform="scale(0.015625)"/>
       <path id="DejaVuSans-3d" d="M 678 2906 
L 4684 2906 
L 4684 2381 
L 678 2381 
L 678 2906 
z
M 678 1631 
L 4684 1631 
L 4684 1100 
L 678 1100 
L 678 1631 
z
" transform="scale(0.015625)"/>
       <path id="DejaVuSans-39" d="M 703 97 
L 703 672 
Q 941 559 1184 500 
Q 1428 441 1663 441 
Q 2288 441 2617 861 
Q 2947 1281 2994 2138 
Q 2813 1869 2534 1725 
Q 2256 1581 1919 1581 
Q 1219 1581 811 2004 
Q 403 2428 403 3163 
Q 403 3881 828 4315 
Q 1253 4750 1959 4750 
Q 2769 4750 3195 4129 
Q 3622 3509 3622 2328 
Q 3622 1225 3098 567 
Q 2575 -91 1691 -91 
Q 1453 -91 1209 -44 
Q 966 3 703 97 
z
M 1959 2075 
Q 2384 2075 2632 2365 
Q 2881 2656 2881 3163 
Q 2881 3666 2632 3958 
Q 2384 4250 1959 4250 
Q 1534 4250 1286 3958 
Q 1038 3666 1038 3163 
Q 1038 2656 1286 2365 
Q 1534 2075 1959 2075 
z
" transform="scale(0.015625)"/>
       <path id="DejaVuSans-35" d="M 691 4666 
L 3169 4666 
L 3169 4134 
L 1269 4134 
L 1269 2991 
Q 1406 3038 1543 3061 
Q 1681 3084 1819 3084 
Q 2600 3084 3056 2656 
Q 3513 2228 3513 1497 
Q 3513 744 3044 326 
Q 2575 -91 1722 -91 
Q 1428 -91 1123 -41 
Q 819 9 494 109 
L 494 744 
Q 775 591 1075 516 
Q 1375 441 1709 441 
Q 2250 441 2565 725 
Q 2881 1009 2881 1497 
Q 2881 1984 2565 2268 
Q 2250 2553 1709 2553 
Q 1456 2553 1204 2497 
Q 953 2441 691 2322 
L 691 4666 
z
" transform="scale(0.015625)"/>
       <path id="DejaVuSans-29" d="M 513 4856 
L 1013 4856 
Q 1481 4119 1714 3412 
Q 1947 2706 1947 2009 
Q 1947 1309 1714 600 
Q 1481 -109 1013 -844 
L 513 -844 
Q 928 -128 1133 580 
Q 1338 1288 1338 2009 
Q 1338 2731 1133 3434 
Q 928 4138 513 4856 
z
" transform="scale(0.015625)"/>
      </defs>
      <use xlink:href="#DejaVuSans-43"/>
      <use xlink:href="#DejaVuSans-6c" x="69.824219"/>
      <use xlink:href="#DejaVuSans-61" x="97.607422"/>
      <use xlink:href="#DejaVuSans-73" x="158.886719"/>
      <use xlink:href="#DejaVuSans-73" x="210.986328"/>
      <use xlink:href="#DejaVuSans-20" x="263.085938"/>
      <use xlink:href="#DejaVuSans-31" x="294.873047"/>
      <use xlink:href="#DejaVuSans-20" x="358.496094"/>
      <use xlink:href="#DejaVuSans-77" x="390.283203"/>
      <use xlink:href="#DejaVuSans-69" x="472.070312"/>
      <use xlink:href="#DejaVuSans-74" x="499.853516"/>
      <use xlink:href="#DejaVuSans-68" x="539.0625"/>
      <use xlink:href="#DejaVuSans-20" x="602.441406"/>
      <use xlink:href="#DejaVuSans-6b" x="634.228516"/>
      <use xlink:href="#DejaVuSans-6e" x="692.138672"/>
      <use xlink:href="#DejaVuSans-6f" x="755.517578"/>
      <use xlink:href="#DejaVuSans-77" x="816.699219"/>
      <use xlink:href="#DejaVuSans-6c" x="898.486328"/>
      <use xlink:href="#DejaVuSans-65" x="926.269531"/>
      <use xlink:href="#DejaVuSans-64" x="987.792969"/>
      <use xlink:href="#DejaVuSans-67" x="1051.269531"/>
      <use xlink:href="#DejaVuSans-65" x="1114.746094"/>
      <use xlink:href="#DejaVuSans-20" x="1176.269531"/>
      <use xlink:href="#DejaVuSans-28" x="1208.056641"/>
      <use xlink:href="#DejaVuSans-41" x="1247.070312"/>
      <use xlink:href="#DejaVuSans-55" x="1315.478516"/>
      <use xlink:href="#DejaVuSans-43" x="1388.671875"/>
      <use xlink:href="#DejaVuSans-20" x="1458.496094"/>
      <use xlink:href="#DejaVuSans-3d" x="1490.283203"/>
      <use xlink:href="#DejaVuSans-20" x="1574.072266"/>
      <use xlink:href="#DejaVuSans-30" x="1605.859375"/>
      <use xlink:href="#DejaVuSans-2e" x="1669.482422"/>
      <use xlink:href="#DejaVuSans-39" x="1701.269531"/>
      <use xlink:href="#DejaVuSans-35" x="1764.892578"/>
      <use xlink:href="#DejaVuSans-34" x="1828.515625"/>
      <use xlink:href="#DejaVuSans-29" x="1892.138672"/>
     </g>
    </g>
    <g id="line2d_39">
     <path d="M 432.439687 400.239063 
L 442.439687 400.239063 
L 452.439687 400.239063 
" style="fill: none; stroke-dasharray: 7.4,3.2; stroke-dashoffset: 0; stroke: #00ffff; stroke-width: 2"/>
    </g>
    <g id="text_16">
     <!-- Class 1 without knowledge (AUC = 0.831) -->
     <g transform="translate(460.439687 403.739063) scale(0.1 -0.1)">
      <defs>
       <path id="DejaVuSans-33" d="M 2597 2516 
Q 3050 2419 3304 2112 
Q 3559 1806 3559 1356 
Q 3559 666 3084 287 
Q 2609 -91 1734 -91 
Q 1441 -91 1130 -33 
Q 819 25 488 141 
L 488 750 
Q 750 597 1062 519 
Q 1375 441 1716 441 
Q 2309 441 2620 675 
Q 2931 909 2931 1356 
Q 2931 1769 2642 2001 
Q 2353 2234 1838 2234 
L 1294 2234 
L 1294 2753 
L 1863 2753 
Q 2328 2753 2575 2939 
Q 2822 3125 2822 3475 
Q 2822 3834 2567 4026 
Q 2313 4219 1838 4219 
Q 1578 4219 1281 4162 
Q 984 4106 628 3988 
L 628 4550 
Q 988 4650 1302 4700 
Q 1616 4750 1894 4750 
Q 2613 4750 3031 4423 
Q 3450 4097 3450 3541 
Q 3450 3153 3228 2886 
Q 3006 2619 2597 2516 
z
" transform="scale(0.015625)"/>
      </defs>
      <use xlink:href="#DejaVuSans-43"/>
      <use xlink:href="#DejaVuSans-6c" x="69.824219"/>
      <use xlink:href="#DejaVuSans-61" x="97.607422"/>
      <use xlink:href="#DejaVuSans-73" x="158.886719"/>
      <use xlink:href="#DejaVuSans-73" x="210.986328"/>
      <use xlink:href="#DejaVuSans-20" x="263.085938"/>
      <use xlink:href="#DejaVuSans-31" x="294.873047"/>
      <use xlink:href="#DejaVuSans-20" x="358.496094"/>
      <use xlink:href="#DejaVuSans-77" x="390.283203"/>
      <use xlink:href="#DejaVuSans-69" x="472.070312"/>
      <use xlink:href="#DejaVuSans-74" x="499.853516"/>
      <use xlink:href="#DejaVuSans-68" x="539.0625"/>
      <use xlink:href="#DejaVuSans-6f" x="602.441406"/>
      <use xlink:href="#DejaVuSans-75" x="663.623047"/>
      <use xlink:href="#DejaVuSans-74" x="727.001953"/>
      <use xlink:href="#DejaVuSans-20" x="766.210938"/>
      <use xlink:href="#DejaVuSans-6b" x="797.998047"/>
      <use xlink:href="#DejaVuSans-6e" x="855.908203"/>
      <use xlink:href="#DejaVuSans-6f" x="919.287109"/>
      <use xlink:href="#DejaVuSans-77" x="980.46875"/>
      <use xlink:href="#DejaVuSans-6c" x="1062.255859"/>
      <use xlink:href="#DejaVuSans-65" x="1090.039062"/>
      <use xlink:href="#DejaVuSans-64" x="1151.5625"/>
      <use xlink:href="#DejaVuSans-67" x="1215.039062"/>
      <use xlink:href="#DejaVuSans-65" x="1278.515625"/>
      <use xlink:href="#DejaVuSans-20" x="1340.039062"/>
      <use xlink:href="#DejaVuSans-28" x="1371.826172"/>
      <use xlink:href="#DejaVuSans-41" x="1410.839844"/>
      <use xlink:href="#DejaVuSans-55" x="1479.248047"/>
      <use xlink:href="#DejaVuSans-43" x="1552.441406"/>
      <use xlink:href="#DejaVuSans-20" x="1622.265625"/>
      <use xlink:href="#DejaVuSans-3d" x="1654.052734"/>
      <use xlink:href="#DejaVuSans-20" x="1737.841797"/>
      <use xlink:href="#DejaVuSans-30" x="1769.628906"/>
      <use xlink:href="#DejaVuSans-2e" x="1833.251953"/>
      <use xlink:href="#DejaVuSans-38" x="1865.039062"/>
      <use xlink:href="#DejaVuSans-33" x="1928.662109"/>
      <use xlink:href="#DejaVuSans-31" x="1992.285156"/>
      <use xlink:href="#DejaVuSans-29" x="2055.908203"/>
     </g>
    </g>
    <g id="line2d_40">
     <path d="M 432.439687 414.917188 
L 442.439687 414.917188 
L 452.439687 414.917188 
" style="fill: none; stroke: #ff8c00; stroke-width: 2; stroke-linecap: square"/>
    </g>
    <g id="text_17">
     <!-- Class 2 with knowledge (AUC = 0.934) -->
     <g transform="translate(460.439687 418.417188) scale(0.1 -0.1)">
      <use xlink:href="#DejaVuSans-43"/>
      <use xlink:href="#DejaVuSans-6c" x="69.824219"/>
      <use xlink:href="#DejaVuSans-61" x="97.607422"/>
      <use xlink:href="#DejaVuSans-73" x="158.886719"/>
      <use xlink:href="#DejaVuSans-73" x="210.986328"/>
      <use xlink:href="#DejaVuSans-20" x="263.085938"/>
      <use xlink:href="#DejaVuSans-32" x="294.873047"/>
      <use xlink:href="#DejaVuSans-20" x="358.496094"/>
      <use xlink:href="#DejaVuSans-77" x="390.283203"/>
      <use xlink:href="#DejaVuSans-69" x="472.070312"/>
      <use xlink:href="#DejaVuSans-74" x="499.853516"/>
      <use xlink:href="#DejaVuSans-68" x="539.0625"/>
      <use xlink:href="#DejaVuSans-20" x="602.441406"/>
      <use xlink:href="#DejaVuSans-6b" x="634.228516"/>
      <use xlink:href="#DejaVuSans-6e" x="692.138672"/>
      <use xlink:href="#DejaVuSans-6f" x="755.517578"/>
      <use xlink:href="#DejaVuSans-77" x="816.699219"/>
      <use xlink:href="#DejaVuSans-6c" x="898.486328"/>
      <use xlink:href="#DejaVuSans-65" x="926.269531"/>
      <use xlink:href="#DejaVuSans-64" x="987.792969"/>
      <use xlink:href="#DejaVuSans-67" x="1051.269531"/>
      <use xlink:href="#DejaVuSans-65" x="1114.746094"/>
      <use xlink:href="#DejaVuSans-20" x="1176.269531"/>
      <use xlink:href="#DejaVuSans-28" x="1208.056641"/>
      <use xlink:href="#DejaVuSans-41" x="1247.070312"/>
      <use xlink:href="#DejaVuSans-55" x="1315.478516"/>
      <use xlink:href="#DejaVuSans-43" x="1388.671875"/>
      <use xlink:href="#DejaVuSans-20" x="1458.496094"/>
      <use xlink:href="#DejaVuSans-3d" x="1490.283203"/>
      <use xlink:href="#DejaVuSans-20" x="1574.072266"/>
      <use xlink:href="#DejaVuSans-30" x="1605.859375"/>
      <use xlink:href="#DejaVuSans-2e" x="1669.482422"/>
      <use xlink:href="#DejaVuSans-39" x="1701.269531"/>
      <use xlink:href="#DejaVuSans-33" x="1764.892578"/>
      <use xlink:href="#DejaVuSans-34" x="1828.515625"/>
      <use xlink:href="#DejaVuSans-29" x="1892.138672"/>
     </g>
    </g>
    <g id="line2d_41">
     <path d="M 432.439687 429.595313 
L 442.439687 429.595313 
L 452.439687 429.595313 
" style="fill: none; stroke-dasharray: 7.4,3.2; stroke-dashoffset: 0; stroke: #ff8c00; stroke-width: 2"/>
    </g>
    <g id="text_18">
     <!-- Class 2 without knowledge (AUC = 0.844) -->
     <g transform="translate(460.439687 433.095313) scale(0.1 -0.1)">
      <use xlink:href="#DejaVuSans-43"/>
      <use xlink:href="#DejaVuSans-6c" x="69.824219"/>
      <use xlink:href="#DejaVuSans-61" x="97.607422"/>
      <use xlink:href="#DejaVuSans-73" x="158.886719"/>
      <use xlink:href="#DejaVuSans-73" x="210.986328"/>
      <use xlink:href="#DejaVuSans-20" x="263.085938"/>
      <use xlink:href="#DejaVuSans-32" x="294.873047"/>
      <use xlink:href="#DejaVuSans-20" x="358.496094"/>
      <use xlink:href="#DejaVuSans-77" x="390.283203"/>
      <use xlink:href="#DejaVuSans-69" x="472.070312"/>
      <use xlink:href="#DejaVuSans-74" x="499.853516"/>
      <use xlink:href="#DejaVuSans-68" x="539.0625"/>
      <use xlink:href="#DejaVuSans-6f" x="602.441406"/>
      <use xlink:href="#DejaVuSans-75" x="663.623047"/>
      <use xlink:href="#DejaVuSans-74" x="727.001953"/>
      <use xlink:href="#DejaVuSans-20" x="766.210938"/>
      <use xlink:href="#DejaVuSans-6b" x="797.998047"/>
      <use xlink:href="#DejaVuSans-6e" x="855.908203"/>
      <use xlink:href="#DejaVuSans-6f" x="919.287109"/>
      <use xlink:href="#DejaVuSans-77" x="980.46875"/>
      <use xlink:href="#DejaVuSans-6c" x="1062.255859"/>
      <use xlink:href="#DejaVuSans-65" x="1090.039062"/>
      <use xlink:href="#DejaVuSans-64" x="1151.5625"/>
      <use xlink:href="#DejaVuSans-67" x="1215.039062"/>
      <use xlink:href="#DejaVuSans-65" x="1278.515625"/>
      <use xlink:href="#DejaVuSans-20" x="1340.039062"/>
      <use xlink:href="#DejaVuSans-28" x="1371.826172"/>
      <use xlink:href="#DejaVuSans-41" x="1410.839844"/>
      <use xlink:href="#DejaVuSans-55" x="1479.248047"/>
      <use xlink:href="#DejaVuSans-43" x="1552.441406"/>
      <use xlink:href="#DejaVuSans-20" x="1622.265625"/>
      <use xlink:href="#DejaVuSans-3d" x="1654.052734"/>
      <use xlink:href="#DejaVuSans-20" x="1737.841797"/>
      <use xlink:href="#DejaVuSans-30" x="1769.628906"/>
      <use xlink:href="#DejaVuSans-2e" x="1833.251953"/>
      <use xlink:href="#DejaVuSans-38" x="1865.039062"/>
      <use xlink:href="#DejaVuSans-34" x="1928.662109"/>
      <use xlink:href="#DejaVuSans-34" x="1992.285156"/>
      <use xlink:href="#DejaVuSans-29" x="2055.908203"/>
     </g>
    </g>
    <g id="line2d_42">
     <path d="M 432.439687 444.273438 
L 442.439687 444.273438 
L 452.439687 444.273438 
" style="fill: none; stroke: #6495ed; stroke-width: 2; stroke-linecap: square"/>
    </g>
    <g id="text_19">
     <!-- Class 3 with knowledge (AUC = 0.993) -->
     <g transform="translate(460.439687 447.773438) scale(0.1 -0.1)">
      <use xlink:href="#DejaVuSans-43"/>
      <use xlink:href="#DejaVuSans-6c" x="69.824219"/>
      <use xlink:href="#DejaVuSans-61" x="97.607422"/>
      <use xlink:href="#DejaVuSans-73" x="158.886719"/>
      <use xlink:href="#DejaVuSans-73" x="210.986328"/>
      <use xlink:href="#DejaVuSans-20" x="263.085938"/>
      <use xlink:href="#DejaVuSans-33" x="294.873047"/>
      <use xlink:href="#DejaVuSans-20" x="358.496094"/>
      <use xlink:href="#DejaVuSans-77" x="390.283203"/>
      <use xlink:href="#DejaVuSans-69" x="472.070312"/>
      <use xlink:href="#DejaVuSans-74" x="499.853516"/>
      <use xlink:href="#DejaVuSans-68" x="539.0625"/>
      <use xlink:href="#DejaVuSans-20" x="602.441406"/>
      <use xlink:href="#DejaVuSans-6b" x="634.228516"/>
      <use xlink:href="#DejaVuSans-6e" x="692.138672"/>
      <use xlink:href="#DejaVuSans-6f" x="755.517578"/>
      <use xlink:href="#DejaVuSans-77" x="816.699219"/>
      <use xlink:href="#DejaVuSans-6c" x="898.486328"/>
      <use xlink:href="#DejaVuSans-65" x="926.269531"/>
      <use xlink:href="#DejaVuSans-64" x="987.792969"/>
      <use xlink:href="#DejaVuSans-67" x="1051.269531"/>
      <use xlink:href="#DejaVuSans-65" x="1114.746094"/>
      <use xlink:href="#DejaVuSans-20" x="1176.269531"/>
      <use xlink:href="#DejaVuSans-28" x="1208.056641"/>
      <use xlink:href="#DejaVuSans-41" x="1247.070312"/>
      <use xlink:href="#DejaVuSans-55" x="1315.478516"/>
      <use xlink:href="#DejaVuSans-43" x="1388.671875"/>
      <use xlink:href="#DejaVuSans-20" x="1458.496094"/>
      <use xlink:href="#DejaVuSans-3d" x="1490.283203"/>
      <use xlink:href="#DejaVuSans-20" x="1574.072266"/>
      <use xlink:href="#DejaVuSans-30" x="1605.859375"/>
      <use xlink:href="#DejaVuSans-2e" x="1669.482422"/>
      <use xlink:href="#DejaVuSans-39" x="1701.269531"/>
      <use xlink:href="#DejaVuSans-39" x="1764.892578"/>
      <use xlink:href="#DejaVuSans-33" x="1828.515625"/>
      <use xlink:href="#DejaVuSans-29" x="1892.138672"/>
     </g>
    </g>
    <g id="line2d_43">
     <path d="M 432.439687 458.951563 
L 442.439687 458.951563 
L 452.439687 458.951563 
" style="fill: none; stroke-dasharray: 7.4,3.2; stroke-dashoffset: 0; stroke: #6495ed; stroke-width: 2"/>
    </g>
    <g id="text_20">
     <!-- Class 3 without knowledge (AUC = 0.980) -->
     <g transform="translate(460.439687 462.451563) scale(0.1 -0.1)">
      <use xlink:href="#DejaVuSans-43"/>
      <use xlink:href="#DejaVuSans-6c" x="69.824219"/>
      <use xlink:href="#DejaVuSans-61" x="97.607422"/>
      <use xlink:href="#DejaVuSans-73" x="158.886719"/>
      <use xlink:href="#DejaVuSans-73" x="210.986328"/>
      <use xlink:href="#DejaVuSans-20" x="263.085938"/>
      <use xlink:href="#DejaVuSans-33" x="294.873047"/>
      <use xlink:href="#DejaVuSans-20" x="358.496094"/>
      <use xlink:href="#DejaVuSans-77" x="390.283203"/>
      <use xlink:href="#DejaVuSans-69" x="472.070312"/>
      <use xlink:href="#DejaVuSans-74" x="499.853516"/>
      <use xlink:href="#DejaVuSans-68" x="539.0625"/>
      <use xlink:href="#DejaVuSans-6f" x="602.441406"/>
      <use xlink:href="#DejaVuSans-75" x="663.623047"/>
      <use xlink:href="#DejaVuSans-74" x="727.001953"/>
      <use xlink:href="#DejaVuSans-20" x="766.210938"/>
      <use xlink:href="#DejaVuSans-6b" x="797.998047"/>
      <use xlink:href="#DejaVuSans-6e" x="855.908203"/>
      <use xlink:href="#DejaVuSans-6f" x="919.287109"/>
      <use xlink:href="#DejaVuSans-77" x="980.46875"/>
      <use xlink:href="#DejaVuSans-6c" x="1062.255859"/>
      <use xlink:href="#DejaVuSans-65" x="1090.039062"/>
      <use xlink:href="#DejaVuSans-64" x="1151.5625"/>
      <use xlink:href="#DejaVuSans-67" x="1215.039062"/>
      <use xlink:href="#DejaVuSans-65" x="1278.515625"/>
      <use xlink:href="#DejaVuSans-20" x="1340.039062"/>
      <use xlink:href="#DejaVuSans-28" x="1371.826172"/>
      <use xlink:href="#DejaVuSans-41" x="1410.839844"/>
      <use xlink:href="#DejaVuSans-55" x="1479.248047"/>
      <use xlink:href="#DejaVuSans-43" x="1552.441406"/>
      <use xlink:href="#DejaVuSans-20" x="1622.265625"/>
      <use xlink:href="#DejaVuSans-3d" x="1654.052734"/>
      <use xlink:href="#DejaVuSans-20" x="1737.841797"/>
      <use xlink:href="#DejaVuSans-30" x="1769.628906"/>
      <use xlink:href="#DejaVuSans-2e" x="1833.251953"/>
      <use xlink:href="#DejaVuSans-39" x="1865.039062"/>
      <use xlink:href="#DejaVuSans-38" x="1928.662109"/>
      <use xlink:href="#DejaVuSans-30" x="1992.285156"/>
      <use xlink:href="#DejaVuSans-29" x="2055.908203"/>
     </g>
    </g>
    <g id="line2d_44">
     <path d="M 432.439687 473.629688 
L 442.439687 473.629688 
L 452.439687 473.629688 
" style="fill: none; stroke: #ff0000; stroke-width: 2; stroke-linecap: square"/>
    </g>
    <g id="text_21">
     <!-- Class 4 with knowledge (AUC = 0.983) -->
     <g transform="translate(460.439687 477.129688) scale(0.1 -0.1)">
      <use xlink:href="#DejaVuSans-43"/>
      <use xlink:href="#DejaVuSans-6c" x="69.824219"/>
      <use xlink:href="#DejaVuSans-61" x="97.607422"/>
      <use xlink:href="#DejaVuSans-73" x="158.886719"/>
      <use xlink:href="#DejaVuSans-73" x="210.986328"/>
      <use xlink:href="#DejaVuSans-20" x="263.085938"/>
      <use xlink:href="#DejaVuSans-34" x="294.873047"/>
      <use xlink:href="#DejaVuSans-20" x="358.496094"/>
      <use xlink:href="#DejaVuSans-77" x="390.283203"/>
      <use xlink:href="#DejaVuSans-69" x="472.070312"/>
      <use xlink:href="#DejaVuSans-74" x="499.853516"/>
      <use xlink:href="#DejaVuSans-68" x="539.0625"/>
      <use xlink:href="#DejaVuSans-20" x="602.441406"/>
      <use xlink:href="#DejaVuSans-6b" x="634.228516"/>
      <use xlink:href="#DejaVuSans-6e" x="692.138672"/>
      <use xlink:href="#DejaVuSans-6f" x="755.517578"/>
      <use xlink:href="#DejaVuSans-77" x="816.699219"/>
      <use xlink:href="#DejaVuSans-6c" x="898.486328"/>
      <use xlink:href="#DejaVuSans-65" x="926.269531"/>
      <use xlink:href="#DejaVuSans-64" x="987.792969"/>
      <use xlink:href="#DejaVuSans-67" x="1051.269531"/>
      <use xlink:href="#DejaVuSans-65" x="1114.746094"/>
      <use xlink:href="#DejaVuSans-20" x="1176.269531"/>
      <use xlink:href="#DejaVuSans-28" x="1208.056641"/>
      <use xlink:href="#DejaVuSans-41" x="1247.070312"/>
      <use xlink:href="#DejaVuSans-55" x="1315.478516"/>
      <use xlink:href="#DejaVuSans-43" x="1388.671875"/>
      <use xlink:href="#DejaVuSans-20" x="1458.496094"/>
      <use xlink:href="#DejaVuSans-3d" x="1490.283203"/>
      <use xlink:href="#DejaVuSans-20" x="1574.072266"/>
      <use xlink:href="#DejaVuSans-30" x="1605.859375"/>
      <use xlink:href="#DejaVuSans-2e" x="1669.482422"/>
      <use xlink:href="#DejaVuSans-39" x="1701.269531"/>
      <use xlink:href="#DejaVuSans-38" x="1764.892578"/>
      <use xlink:href="#DejaVuSans-33" x="1828.515625"/>
      <use xlink:href="#DejaVuSans-29" x="1892.138672"/>
     </g>
    </g>
    <g id="line2d_45">
     <path d="M 432.439687 488.307813 
L 442.439687 488.307813 
L 452.439687 488.307813 
" style="fill: none; stroke-dasharray: 7.4,3.2; stroke-dashoffset: 0; stroke: #ff0000; stroke-width: 2"/>
    </g>
    <g id="text_22">
     <!-- Class 4 without knowledge (AUC = 0.948) -->
     <g transform="translate(460.439687 491.807813) scale(0.1 -0.1)">
      <use xlink:href="#DejaVuSans-43"/>
      <use xlink:href="#DejaVuSans-6c" x="69.824219"/>
      <use xlink:href="#DejaVuSans-61" x="97.607422"/>
      <use xlink:href="#DejaVuSans-73" x="158.886719"/>
      <use xlink:href="#DejaVuSans-73" x="210.986328"/>
      <use xlink:href="#DejaVuSans-20" x="263.085938"/>
      <use xlink:href="#DejaVuSans-34" x="294.873047"/>
      <use xlink:href="#DejaVuSans-20" x="358.496094"/>
      <use xlink:href="#DejaVuSans-77" x="390.283203"/>
      <use xlink:href="#DejaVuSans-69" x="472.070312"/>
      <use xlink:href="#DejaVuSans-74" x="499.853516"/>
      <use xlink:href="#DejaVuSans-68" x="539.0625"/>
      <use xlink:href="#DejaVuSans-6f" x="602.441406"/>
      <use xlink:href="#DejaVuSans-75" x="663.623047"/>
      <use xlink:href="#DejaVuSans-74" x="727.001953"/>
      <use xlink:href="#DejaVuSans-20" x="766.210938"/>
      <use xlink:href="#DejaVuSans-6b" x="797.998047"/>
      <use xlink:href="#DejaVuSans-6e" x="855.908203"/>
      <use xlink:href="#DejaVuSans-6f" x="919.287109"/>
      <use xlink:href="#DejaVuSans-77" x="980.46875"/>
      <use xlink:href="#DejaVuSans-6c" x="1062.255859"/>
      <use xlink:href="#DejaVuSans-65" x="1090.039062"/>
      <use xlink:href="#DejaVuSans-64" x="1151.5625"/>
      <use xlink:href="#DejaVuSans-67" x="1215.039062"/>
      <use xlink:href="#DejaVuSans-65" x="1278.515625"/>
      <use xlink:href="#DejaVuSans-20" x="1340.039062"/>
      <use xlink:href="#DejaVuSans-28" x="1371.826172"/>
      <use xlink:href="#DejaVuSans-41" x="1410.839844"/>
      <use xlink:href="#DejaVuSans-55" x="1479.248047"/>
      <use xlink:href="#DejaVuSans-43" x="1552.441406"/>
      <use xlink:href="#DejaVuSans-20" x="1622.265625"/>
      <use xlink:href="#DejaVuSans-3d" x="1654.052734"/>
      <use xlink:href="#DejaVuSans-20" x="1737.841797"/>
      <use xlink:href="#DejaVuSans-30" x="1769.628906"/>
      <use xlink:href="#DejaVuSans-2e" x="1833.251953"/>
      <use xlink:href="#DejaVuSans-39" x="1865.039062"/>
      <use xlink:href="#DejaVuSans-34" x="1928.662109"/>
      <use xlink:href="#DejaVuSans-38" x="1992.285156"/>
      <use xlink:href="#DejaVuSans-29" x="2055.908203"/>
     </g>
    </g>
    <g id="line2d_46">
     <path d="M 432.439687 502.985938 
L 442.439687 502.985938 
L 452.439687 502.985938 
" style="fill: none; stroke: #ff1493; stroke-width: 4; stroke-linecap: square"/>
    </g>
    <g id="text_23">
     <!-- micro-average with knowledge (AUC = 0.975) -->
     <g transform="translate(460.439687 506.485938) scale(0.1 -0.1)">
      <defs>
       <path id="DejaVuSans-6d" d="M 3328 2828 
Q 3544 3216 3844 3400 
Q 4144 3584 4550 3584 
Q 5097 3584 5394 3201 
Q 5691 2819 5691 2113 
L 5691 0 
L 5113 0 
L 5113 2094 
Q 5113 2597 4934 2840 
Q 4756 3084 4391 3084 
Q 3944 3084 3684 2787 
Q 3425 2491 3425 1978 
L 3425 0 
L 2847 0 
L 2847 2094 
Q 2847 2600 2669 2842 
Q 2491 3084 2119 3084 
Q 1678 3084 1418 2786 
Q 1159 2488 1159 1978 
L 1159 0 
L 581 0 
L 581 3500 
L 1159 3500 
L 1159 2956 
Q 1356 3278 1631 3431 
Q 1906 3584 2284 3584 
Q 2666 3584 2933 3390 
Q 3200 3197 3328 2828 
z
" transform="scale(0.015625)"/>
       <path id="DejaVuSans-63" d="M 3122 3366 
L 3122 2828 
Q 2878 2963 2633 3030 
Q 2388 3097 2138 3097 
Q 1578 3097 1268 2742 
Q 959 2388 959 1747 
Q 959 1106 1268 751 
Q 1578 397 2138 397 
Q 2388 397 2633 464 
Q 2878 531 3122 666 
L 3122 134 
Q 2881 22 2623 -34 
Q 2366 -91 2075 -91 
Q 1284 -91 818 406 
Q 353 903 353 1747 
Q 353 2603 823 3093 
Q 1294 3584 2113 3584 
Q 2378 3584 2631 3529 
Q 2884 3475 3122 3366 
z
" transform="scale(0.015625)"/>
       <path id="DejaVuSans-2d" d="M 313 2009 
L 1997 2009 
L 1997 1497 
L 313 1497 
L 313 2009 
z
" transform="scale(0.015625)"/>
       <path id="DejaVuSans-37" d="M 525 4666 
L 3525 4666 
L 3525 4397 
L 1831 0 
L 1172 0 
L 2766 4134 
L 525 4134 
L 525 4666 
z
" transform="scale(0.015625)"/>
      </defs>
      <use xlink:href="#DejaVuSans-6d"/>
      <use xlink:href="#DejaVuSans-69" x="97.412109"/>
      <use xlink:href="#DejaVuSans-63" x="125.195312"/>
      <use xlink:href="#DejaVuSans-72" x="180.175781"/>
      <use xlink:href="#DejaVuSans-6f" x="219.039062"/>
      <use xlink:href="#DejaVuSans-2d" x="282.095703"/>
      <use xlink:href="#DejaVuSans-61" x="318.179688"/>
      <use xlink:href="#DejaVuSans-76" x="379.458984"/>
      <use xlink:href="#DejaVuSans-65" x="438.638672"/>
      <use xlink:href="#DejaVuSans-72" x="500.162109"/>
      <use xlink:href="#DejaVuSans-61" x="541.275391"/>
      <use xlink:href="#DejaVuSans-67" x="602.554688"/>
      <use xlink:href="#DejaVuSans-65" x="666.03125"/>
      <use xlink:href="#DejaVuSans-20" x="727.554688"/>
      <use xlink:href="#DejaVuSans-77" x="759.341797"/>
      <use xlink:href="#DejaVuSans-69" x="841.128906"/>
      <use xlink:href="#DejaVuSans-74" x="868.912109"/>
      <use xlink:href="#DejaVuSans-68" x="908.121094"/>
      <use xlink:href="#DejaVuSans-20" x="971.5"/>
      <use xlink:href="#DejaVuSans-6b" x="1003.287109"/>
      <use xlink:href="#DejaVuSans-6e" x="1061.197266"/>
      <use xlink:href="#DejaVuSans-6f" x="1124.576172"/>
      <use xlink:href="#DejaVuSans-77" x="1185.757812"/>
      <use xlink:href="#DejaVuSans-6c" x="1267.544922"/>
      <use xlink:href="#DejaVuSans-65" x="1295.328125"/>
      <use xlink:href="#DejaVuSans-64" x="1356.851562"/>
      <use xlink:href="#DejaVuSans-67" x="1420.328125"/>
      <use xlink:href="#DejaVuSans-65" x="1483.804688"/>
      <use xlink:href="#DejaVuSans-20" x="1545.328125"/>
      <use xlink:href="#DejaVuSans-28" x="1577.115234"/>
      <use xlink:href="#DejaVuSans-41" x="1616.128906"/>
      <use xlink:href="#DejaVuSans-55" x="1684.537109"/>
      <use xlink:href="#DejaVuSans-43" x="1757.730469"/>
      <use xlink:href="#DejaVuSans-20" x="1827.554688"/>
      <use xlink:href="#DejaVuSans-3d" x="1859.341797"/>
      <use xlink:href="#DejaVuSans-20" x="1943.130859"/>
      <use xlink:href="#DejaVuSans-30" x="1974.917969"/>
      <use xlink:href="#DejaVuSans-2e" x="2038.541016"/>
      <use xlink:href="#DejaVuSans-39" x="2070.328125"/>
      <use xlink:href="#DejaVuSans-37" x="2133.951172"/>
      <use xlink:href="#DejaVuSans-35" x="2197.574219"/>
      <use xlink:href="#DejaVuSans-29" x="2261.197266"/>
     </g>
    </g>
    <g id="line2d_47">
     <path d="M 432.439687 517.664062 
L 442.439687 517.664062 
L 452.439687 517.664062 
" style="fill: none; stroke-dasharray: 14.8,6.4; stroke-dashoffset: 0; stroke: #ff1493; stroke-width: 4"/>
    </g>
    <g id="text_24">
     <!-- micro-average without knowledge (AUC = 0.922) -->
     <g transform="translate(460.439687 521.164062) scale(0.1 -0.1)">
      <use xlink:href="#DejaVuSans-6d"/>
      <use xlink:href="#DejaVuSans-69" x="97.412109"/>
      <use xlink:href="#DejaVuSans-63" x="125.195312"/>
      <use xlink:href="#DejaVuSans-72" x="180.175781"/>
      <use xlink:href="#DejaVuSans-6f" x="219.039062"/>
      <use xlink:href="#DejaVuSans-2d" x="282.095703"/>
      <use xlink:href="#DejaVuSans-61" x="318.179688"/>
      <use xlink:href="#DejaVuSans-76" x="379.458984"/>
      <use xlink:href="#DejaVuSans-65" x="438.638672"/>
      <use xlink:href="#DejaVuSans-72" x="500.162109"/>
      <use xlink:href="#DejaVuSans-61" x="541.275391"/>
      <use xlink:href="#DejaVuSans-67" x="602.554688"/>
      <use xlink:href="#DejaVuSans-65" x="666.03125"/>
      <use xlink:href="#DejaVuSans-20" x="727.554688"/>
      <use xlink:href="#DejaVuSans-77" x="759.341797"/>
      <use xlink:href="#DejaVuSans-69" x="841.128906"/>
      <use xlink:href="#DejaVuSans-74" x="868.912109"/>
      <use xlink:href="#DejaVuSans-68" x="908.121094"/>
      <use xlink:href="#DejaVuSans-6f" x="971.5"/>
      <use xlink:href="#DejaVuSans-75" x="1032.681641"/>
      <use xlink:href="#DejaVuSans-74" x="1096.060547"/>
      <use xlink:href="#DejaVuSans-20" x="1135.269531"/>
      <use xlink:href="#DejaVuSans-6b" x="1167.056641"/>
      <use xlink:href="#DejaVuSans-6e" x="1224.966797"/>
      <use xlink:href="#DejaVuSans-6f" x="1288.345703"/>
      <use xlink:href="#DejaVuSans-77" x="1349.527344"/>
      <use xlink:href="#DejaVuSans-6c" x="1431.314453"/>
      <use xlink:href="#DejaVuSans-65" x="1459.097656"/>
      <use xlink:href="#DejaVuSans-64" x="1520.621094"/>
      <use xlink:href="#DejaVuSans-67" x="1584.097656"/>
      <use xlink:href="#DejaVuSans-65" x="1647.574219"/>
      <use xlink:href="#DejaVuSans-20" x="1709.097656"/>
      <use xlink:href="#DejaVuSans-28" x="1740.884766"/>
      <use xlink:href="#DejaVuSans-41" x="1779.898438"/>
      <use xlink:href="#DejaVuSans-55" x="1848.306641"/>
      <use xlink:href="#DejaVuSans-43" x="1921.5"/>
      <use xlink:href="#DejaVuSans-20" x="1991.324219"/>
      <use xlink:href="#DejaVuSans-3d" x="2023.111328"/>
      <use xlink:href="#DejaVuSans-20" x="2106.900391"/>
      <use xlink:href="#DejaVuSans-30" x="2138.6875"/>
      <use xlink:href="#DejaVuSans-2e" x="2202.310547"/>
      <use xlink:href="#DejaVuSans-39" x="2234.097656"/>
      <use xlink:href="#DejaVuSans-32" x="2297.720703"/>
      <use xlink:href="#DejaVuSans-32" x="2361.34375"/>
      <use xlink:href="#DejaVuSans-29" x="2424.966797"/>
     </g>
    </g>
    <g id="line2d_48">
     <path d="M 432.439687 532.342188 
L 442.439687 532.342188 
L 452.439687 532.342188 
" style="fill: none; stroke: #000080; stroke-width: 4; stroke-linecap: square"/>
    </g>
    <g id="text_25">
     <!-- macro-average with knowledge (AUC = 0.971) -->
     <g transform="translate(460.439687 535.842188) scale(0.1 -0.1)">
      <use xlink:href="#DejaVuSans-6d"/>
      <use xlink:href="#DejaVuSans-61" x="97.412109"/>
      <use xlink:href="#DejaVuSans-63" x="158.691406"/>
      <use xlink:href="#DejaVuSans-72" x="213.671875"/>
      <use xlink:href="#DejaVuSans-6f" x="252.535156"/>
      <use xlink:href="#DejaVuSans-2d" x="315.591797"/>
      <use xlink:href="#DejaVuSans-61" x="351.675781"/>
      <use xlink:href="#DejaVuSans-76" x="412.955078"/>
      <use xlink:href="#DejaVuSans-65" x="472.134766"/>
      <use xlink:href="#DejaVuSans-72" x="533.658203"/>
      <use xlink:href="#DejaVuSans-61" x="574.771484"/>
      <use xlink:href="#DejaVuSans-67" x="636.050781"/>
      <use xlink:href="#DejaVuSans-65" x="699.527344"/>
      <use xlink:href="#DejaVuSans-20" x="761.050781"/>
      <use xlink:href="#DejaVuSans-77" x="792.837891"/>
      <use xlink:href="#DejaVuSans-69" x="874.625"/>
      <use xlink:href="#DejaVuSans-74" x="902.408203"/>
      <use xlink:href="#DejaVuSans-68" x="941.617188"/>
      <use xlink:href="#DejaVuSans-20" x="1004.996094"/>
      <use xlink:href="#DejaVuSans-6b" x="1036.783203"/>
      <use xlink:href="#DejaVuSans-6e" x="1094.693359"/>
      <use xlink:href="#DejaVuSans-6f" x="1158.072266"/>
      <use xlink:href="#DejaVuSans-77" x="1219.253906"/>
      <use xlink:href="#DejaVuSans-6c" x="1301.041016"/>
      <use xlink:href="#DejaVuSans-65" x="1328.824219"/>
      <use xlink:href="#DejaVuSans-64" x="1390.347656"/>
      <use xlink:href="#DejaVuSans-67" x="1453.824219"/>
      <use xlink:href="#DejaVuSans-65" x="1517.300781"/>
      <use xlink:href="#DejaVuSans-20" x="1578.824219"/>
      <use xlink:href="#DejaVuSans-28" x="1610.611328"/>
      <use xlink:href="#DejaVuSans-41" x="1649.625"/>
      <use xlink:href="#DejaVuSans-55" x="1718.033203"/>
      <use xlink:href="#DejaVuSans-43" x="1791.226562"/>
      <use xlink:href="#DejaVuSans-20" x="1861.050781"/>
      <use xlink:href="#DejaVuSans-3d" x="1892.837891"/>
      <use xlink:href="#DejaVuSans-20" x="1976.626953"/>
      <use xlink:href="#DejaVuSans-30" x="2008.414062"/>
      <use xlink:href="#DejaVuSans-2e" x="2072.037109"/>
      <use xlink:href="#DejaVuSans-39" x="2103.824219"/>
      <use xlink:href="#DejaVuSans-37" x="2167.447266"/>
      <use xlink:href="#DejaVuSans-31" x="2231.070312"/>
      <use xlink:href="#DejaVuSans-29" x="2294.693359"/>
     </g>
    </g>
    <g id="line2d_49">
     <path d="M 432.439687 547.020313 
L 442.439687 547.020313 
L 452.439687 547.020313 
" style="fill: none; stroke-dasharray: 14.8,6.4; stroke-dashoffset: 0; stroke: #000080; stroke-width: 4"/>
    </g>
    <g id="text_26">
     <!-- macro-average without knowledge (AUC = 0.906) -->
     <g transform="translate(460.439687 550.520313) scale(0.1 -0.1)">
      <use xlink:href="#DejaVuSans-6d"/>
      <use xlink:href="#DejaVuSans-61" x="97.412109"/>
      <use xlink:href="#DejaVuSans-63" x="158.691406"/>
      <use xlink:href="#DejaVuSans-72" x="213.671875"/>
      <use xlink:href="#DejaVuSans-6f" x="252.535156"/>
      <use xlink:href="#DejaVuSans-2d" x="315.591797"/>
      <use xlink:href="#DejaVuSans-61" x="351.675781"/>
      <use xlink:href="#DejaVuSans-76" x="412.955078"/>
      <use xlink:href="#DejaVuSans-65" x="472.134766"/>
      <use xlink:href="#DejaVuSans-72" x="533.658203"/>
      <use xlink:href="#DejaVuSans-61" x="574.771484"/>
      <use xlink:href="#DejaVuSans-67" x="636.050781"/>
      <use xlink:href="#DejaVuSans-65" x="699.527344"/>
      <use xlink:href="#DejaVuSans-20" x="761.050781"/>
      <use xlink:href="#DejaVuSans-77" x="792.837891"/>
      <use xlink:href="#DejaVuSans-69" x="874.625"/>
      <use xlink:href="#DejaVuSans-74" x="902.408203"/>
      <use xlink:href="#DejaVuSans-68" x="941.617188"/>
      <use xlink:href="#DejaVuSans-6f" x="1004.996094"/>
      <use xlink:href="#DejaVuSans-75" x="1066.177734"/>
      <use xlink:href="#DejaVuSans-74" x="1129.556641"/>
      <use xlink:href="#DejaVuSans-20" x="1168.765625"/>
      <use xlink:href="#DejaVuSans-6b" x="1200.552734"/>
      <use xlink:href="#DejaVuSans-6e" x="1258.462891"/>
      <use xlink:href="#DejaVuSans-6f" x="1321.841797"/>
      <use xlink:href="#DejaVuSans-77" x="1383.023438"/>
      <use xlink:href="#DejaVuSans-6c" x="1464.810547"/>
      <use xlink:href="#DejaVuSans-65" x="1492.59375"/>
      <use xlink:href="#DejaVuSans-64" x="1554.117188"/>
      <use xlink:href="#DejaVuSans-67" x="1617.59375"/>
      <use xlink:href="#DejaVuSans-65" x="1681.070312"/>
      <use xlink:href="#DejaVuSans-20" x="1742.59375"/>
      <use xlink:href="#DejaVuSans-28" x="1774.380859"/>
      <use xlink:href="#DejaVuSans-41" x="1813.394531"/>
      <use xlink:href="#DejaVuSans-55" x="1881.802734"/>
      <use xlink:href="#DejaVuSans-43" x="1954.996094"/>
      <use xlink:href="#DejaVuSans-20" x="2024.820312"/>
      <use xlink:href="#DejaVuSans-3d" x="2056.607422"/>
      <use xlink:href="#DejaVuSans-20" x="2140.396484"/>
      <use xlink:href="#DejaVuSans-30" x="2172.183594"/>
      <use xlink:href="#DejaVuSans-2e" x="2235.806641"/>
      <use xlink:href="#DejaVuSans-39" x="2267.59375"/>
      <use xlink:href="#DejaVuSans-30" x="2331.216797"/>
      <use xlink:href="#DejaVuSans-36" x="2394.839844"/>
      <use xlink:href="#DejaVuSans-29" x="2458.462891"/>
     </g>
    </g>
   </g>
  </g>
 </g>
 <defs>
  <clipPath id="p889ae66b8d">
   <rect x="49.588125" y="7.2" width="669.6" height="554.4"/>
  </clipPath>
 </defs>
</svg>
